<?xml version="1.0" standalone="no"?>
<!DOCTYPE svg PUBLIC "-//W3C//DTD SVG 20010904//EN"
 "http://www.w3.org/TR/2001/REC-SVG-20010904/DTD/svg10.dtd">
<svg version="1.0" xmlns="http://www.w3.org/2000/svg"
 width="207.000000pt" height="189.000000pt" viewBox="0 0 207.000000 189.000000"
 preserveAspectRatio="xMidYMid meet">

<g transform="translate(0.000000,189.000000) scale(0.100000,-0.100000)"
fill="#000000" stroke="none">
<path d="M713 1696 c-134 -18 -245 -35 -248 -38 -3 -3 83 -53 192 -111 109
-57 349 -185 533 -283 184 -98 342 -177 350 -177 8 1 102 38 209 83 106 44
195 79 197 78 2 -3 -426 -318 -725 -532 -67 -49 -63 -43 123 173 82 95 145
176 140 180 -5 4 -139 79 -299 166 -159 87 -386 212 -503 277 -118 65 -217
118 -221 118 -6 0 -101 -105 -319 -355 l-62 -70 3 -263 2 -263 140 -76 c77
-41 312 -167 522 -279 l382 -204 403 281 c222 155 409 287 417 294 11 10 15
72 19 284 l5 271 -399 196 c-488 240 -582 284 -603 283 -9 -1 -125 -16 -258
-33z m705 -218 c237 -116 432 -215 432 -218 0 -4 -70 -35 -156 -70 -152 -62
-156 -63 -187 -48 -36 18 -845 447 -892 474 -16 9 -25 19 -19 21 9 3 235 34
379 52 6 1 205 -94 443 -211z m-761 3 c98 -54 295 -162 438 -241 143 -78 277
-153 298 -166 l37 -25 -150 -174 c-83 -96 -155 -177 -160 -180 -5 -3 -98 43
-207 103 -109 60 -319 175 -468 257 -148 81 -275 153 -282 159 -10 8 24 52
144 189 85 97 159 177 164 177 5 0 89 -44 186 -99z m1271 -533 l-3 -223 -375
-262 -375 -263 -8 201 c-4 111 -6 207 -4 213 4 11 127 102 572 425 99 72 184
131 188 131 5 0 7 -100 5 -222z m-1465 10 c182 -100 397 -218 477 -262 l145
-81 3 -212 c1 -117 0 -213 -3 -213 -3 0 -221 116 -485 257 l-480 258 0 217 c0
120 2 218 5 218 3 0 155 -82 338 -182z"/>
</g>
</svg>
