<svg xmlns="http://www.w3.org/2000/svg" width="48" height="48.001" viewBox="0 0 48 48.001">
  <defs>
    <style>
      .cls-1 {
        fill: #10f;
      }

      .cls-2 {
        fill: none;
      }
    </style>
  </defs>
  <g id="ico-005-size48px-3D-Achsis-Control-Z-Achse" transform="translate(-52 -42)">
    <path id="Shape4" class="cls-1" d="M-1497-801.32a4.914,4.914,0,0,0-2.033-.436,4.914,4.914,0,0,0-1.965.406v-2.387c-3.447-.612-6-2.768-6-5.326a4.279,4.279,0,0,1,1.1-2.788,7.4,7.4,0,0,1,2.9-1.976v2.2a5.785,5.785,0,0,0-.524.32,3,3,0,0,0-1.477,2.241,3,3,0,0,0,1.477,2.241,7.185,7.185,0,0,0,2.523,1.046V-818.8h-4l6-10,6,10h-4v13.029a7.184,7.184,0,0,0,2.524-1.046,3,3,0,0,0,1.477-2.241,2.04,2.04,0,0,0-.292-1.025l-1.709,1.026v-6l5,3-1.576.947a4.017,4.017,0,0,1,.577,2.053c0,2.558-2.555,4.714-6,5.326v2.418Z" transform="translate(1566.3 870.804)"/>
    <path id="Shape3" d="M-1491.956-810.02l1.958-3.262L-1505.1-822h0a4.914,4.914,0,0,0,1.394-1.543,4.917,4.917,0,0,0,.631-1.9l15.132,8.736,1.984-3.308,6,10Z" transform="translate(1575.257 900.02)"/>
    <path id="Shape2" d="M8.24,27.484a4.96,4.96,0,0,0-4-.03V10h-4l6-10,6,10h-4V27.485Z" transform="translate(91.875 52.625) rotate(60)"/>
    <path id="Shape1" d="M2,0A2,2,0,1,1,0,2,2,2,0,0,1,2,0Z" transform="translate(65.301 72)"/>
    <rect id="ico-005-size48px-3D-Achsis-Control-Z-Achse-TouchArea" class="cls-2" width="48" height="48" transform="translate(52 42)"/>
  </g>
</svg>
