<svg xmlns="http://www.w3.org/2000/svg" width="48" height="48.001" viewBox="0 0 48 48.001">
  <defs>
    <style>
      .cls-1 {
        fill: red;
      }

      .cls-2 {
        fill: none;
      }
    </style>
  </defs>
  <g id="ico-005-size48px-3D-Achsis-Control-X-Achsis" transform="translate(-52 -42)">
    <path id="Shape4" d="M8.24,27.484a4.96,4.96,0,0,0-4-.03V10h-4l6-10,6,10h-4V27.485Z" transform="translate(61.344 42)"/>
    <path id="Shape3" d="M-1309.955-810.02l1.958-3.262L-1323.1-822h0a4.924,4.924,0,0,0,1.394-1.543,4.931,4.931,0,0,0,.631-1.9l15.131,8.736,1.985-3.308,6,10Z" transform="translate(1393.541 900.02)"/>
    <path id="Shape2" class="cls-1" d="M-1318.826-809.388l-2.172,1.254h0v0a4.9,4.9,0,0,0-.639-1.978,4.906,4.906,0,0,0-1.334-1.5l2.123-1.226c-1.23-3.316-.649-6.646,1.584-7.935a4.276,4.276,0,0,1,2.966-.439,7.4,7.4,0,0,1,3.159,1.522l-1.908,1.1a5.945,5.945,0,0,0-.538-.294,3,3,0,0,0-2.679-.158,3,3,0,0,0-1.2,2.4,7.236,7.236,0,0,0,.381,2.787l11.23-6.484-2-3.465,11.66.2-5.66,10.2-2-3.465-11.2,6.466a7.13,7.13,0,0,0,2.112,1.6,3,3,0,0,0,2.679.159,2.052,2.052,0,0,0,.743-.765l-1.743-.968,5.2-3-.1,5.831-1.607-.893a4.03,4.03,0,0,1-1.49,1.526,4.021,4.021,0,0,1-2.032.526A7.71,7.71,0,0,1-1318.826-809.388Z" transform="translate(1393.477 881.638)"/>
    <path id="Shape1" d="M2,0A2,2,0,1,1,0,2,2,2,0,0,1,2,0Z" transform="translate(65.585 72)"/>
    <rect id="ico-005-size48px-3D-Achsis-Control-X-Achsis-TouchArea" class="cls-2" width="48" height="48" transform="translate(52 42)"/>
  </g>
</svg>
