<svg xmlns="http://www.w3.org/2000/svg" width="48" height="48" viewBox="0 0 48 48">
  <defs>
    <style>
      .cls-1 {
        fill: #07c400;
      }

      .cls-2 {
        fill: none;
      }
    </style>
  </defs>
  <g id="ico-005-size48px-3D-Achsis-Control-Y-Achsis" transform="translate(-52 -42)">
    <path id="Shape4" d="M8.24,27.484a4.96,4.96,0,0,0-4-.03V10h-4l6-10,6,10h-4V27.485Z" transform="translate(61.344 42)"/>
    <path id="Shape3" class="cls-1" d="M-1400.955-809.3l1.957-3.262-11.182-6.456a7.175,7.175,0,0,0-.351,2.692,3,3,0,0,0,1.2,2.4,2.044,2.044,0,0,0,1.033.261l-.033-1.994,5.2,3-5.1,2.831-.031-1.839a4.024,4.024,0,0,1-2.067-.526c-2.212-1.277-2.8-4.558-1.618-7.843l-2.148-1.24h0l0,0a4.9,4.9,0,0,0,1.393-1.543,4.912,4.912,0,0,0,.631-1.9l2.119,1.223c2.254-2.688,5.4-3.828,7.624-2.547a4.28,4.28,0,0,1,1.863,2.35,7.393,7.393,0,0,1,.262,3.5l-1.908-1.1a5.536,5.536,0,0,0-.014-.613,3,3,0,0,0-1.2-2.4,3,3,0,0,0-2.679.158,7.2,7.2,0,0,0-2.179,1.676l11.247,6.494,1.985-3.308,6,10Z" transform="translate(1484.541 899.302)"/>
    <path id="Shape2" d="M8.24,27.484a4.96,4.96,0,0,0-4-.03V10h-4l6-10,6,10h-4V27.485Z" transform="translate(92.159 52.625) rotate(60)"/>
    <path id="Shape1" d="M2,0A2,2,0,1,1,0,2,2,2,0,0,1,2,0Z" transform="translate(65.585 72)"/>
    <rect id="ico-005-size48px-3D-Achsis-Control-Y-Achsis-TouchArea" class="cls-2" width="48" height="48" transform="translate(52 42)"/>
  </g>
</svg>
